<mxfile host="app.diagrams.net" agent="Mozilla/5.0 (Macintosh; Intel Mac OS X 10_15_7) AppleWebKit/537.36 (KHTML, like Gecko) Chrome/139.0.0.0 Safari/537.36" version="28.1.1">
  <diagram name="Page-1" id="yolX_gxU64kREPE_3TUZ">
    <mxGraphModel dx="1413" dy="744" grid="1" gridSize="10" guides="1" tooltips="1" connect="1" arrows="1" fold="1" page="0" pageScale="1" pageWidth="827" pageHeight="1169" math="0" shadow="0">
      <root>
        <mxCell id="0" />
        <mxCell id="1" parent="0" />
        <mxCell id="rh9D7iEmWUqZi5Uznie9-1" value="AWS Cloud" style="sketch=0;outlineConnect=0;gradientColor=none;html=1;whiteSpace=wrap;fontSize=12;fontStyle=0;shape=mxgraph.aws4.group;grIcon=mxgraph.aws4.group_aws_cloud;strokeColor=#858B94;fillColor=none;verticalAlign=top;align=left;spacingLeft=30;fontColor=#858B94;dashed=0;" parent="1" vertex="1">
          <mxGeometry x="60" y="770" width="610" height="190" as="geometry" />
        </mxCell>
        <mxCell id="rh9D7iEmWUqZi5Uznie9-28" style="edgeStyle=orthogonalEdgeStyle;rounded=0;orthogonalLoop=1;jettySize=auto;html=1;" parent="1" source="rh9D7iEmWUqZi5Uznie9-2" target="rh9D7iEmWUqZi5Uznie9-27" edge="1">
          <mxGeometry relative="1" as="geometry" />
        </mxCell>
        <mxCell id="S-vX27h5e5ZqEniTOA8P-5" value="" style="edgeStyle=orthogonalEdgeStyle;rounded=0;orthogonalLoop=1;jettySize=auto;html=1;" edge="1" parent="1" source="rh9D7iEmWUqZi5Uznie9-2" target="rh9D7iEmWUqZi5Uznie9-27">
          <mxGeometry relative="1" as="geometry" />
        </mxCell>
        <mxCell id="rh9D7iEmWUqZi5Uznie9-2" value="Model endpoint" style="sketch=0;points=[[0,0,0],[0.25,0,0],[0.5,0,0],[0.75,0,0],[1,0,0],[0,1,0],[0.25,1,0],[0.5,1,0],[0.75,1,0],[1,1,0],[0,0.25,0],[0,0.5,0],[0,0.75,0],[1,0.25,0],[1,0.5,0],[1,0.75,0]];outlineConnect=0;fontColor=#232F3E;fillColor=#01A88D;strokeColor=#ffffff;dashed=0;verticalLabelPosition=bottom;verticalAlign=top;align=center;html=1;fontSize=12;fontStyle=0;aspect=fixed;shape=mxgraph.aws4.resourceIcon;resIcon=mxgraph.aws4.sagemaker;" parent="1" vertex="1">
          <mxGeometry x="340" y="835.8199999999999" width="47" height="47" as="geometry" />
        </mxCell>
        <mxCell id="rh9D7iEmWUqZi5Uznie9-3" value="Model Artifacts Bucket" style="sketch=0;outlineConnect=0;fontColor=#232F3E;gradientColor=none;fillColor=#7AA116;strokeColor=none;dashed=0;verticalLabelPosition=bottom;verticalAlign=top;align=center;html=1;fontSize=12;fontStyle=0;aspect=fixed;pointerEvents=1;shape=mxgraph.aws4.bucket_with_objects;" parent="1" vertex="1">
          <mxGeometry x="560" y="835.1599999999997" width="48.08" height="50" as="geometry" />
        </mxCell>
        <mxCell id="S-vX27h5e5ZqEniTOA8P-3" style="edgeStyle=orthogonalEdgeStyle;rounded=0;orthogonalLoop=1;jettySize=auto;html=1;" edge="1" parent="1" source="rh9D7iEmWUqZi5Uznie9-17">
          <mxGeometry relative="1" as="geometry">
            <mxPoint y="859.48" as="targetPoint" />
          </mxGeometry>
        </mxCell>
        <mxCell id="rh9D7iEmWUqZi5Uznie9-17" value="apigw" style="sketch=0;points=[[0,0,0],[0.25,0,0],[0.5,0,0],[0.75,0,0],[1,0,0],[0,1,0],[0.25,1,0],[0.5,1,0],[0.75,1,0],[1,1,0],[0,0.25,0],[0,0.5,0],[0,0.75,0],[1,0.25,0],[1,0.5,0],[1,0.75,0]];outlineConnect=0;fontColor=#232F3E;fillColor=#E7157B;strokeColor=#ffffff;dashed=0;verticalLabelPosition=bottom;verticalAlign=top;align=center;html=1;fontSize=12;fontStyle=0;aspect=fixed;shape=mxgraph.aws4.resourceIcon;resIcon=mxgraph.aws4.api_gateway;" parent="1" vertex="1">
          <mxGeometry x="120" y="836.1400000000001" width="46.68" height="46.68" as="geometry" />
        </mxCell>
        <mxCell id="rh9D7iEmWUqZi5Uznie9-42" style="edgeStyle=orthogonalEdgeStyle;rounded=0;orthogonalLoop=1;jettySize=auto;html=1;" parent="1" source="rh9D7iEmWUqZi5Uznie9-18" target="rh9D7iEmWUqZi5Uznie9-2" edge="1">
          <mxGeometry relative="1" as="geometry" />
        </mxCell>
        <mxCell id="S-vX27h5e5ZqEniTOA8P-2" style="edgeStyle=orthogonalEdgeStyle;rounded=0;orthogonalLoop=1;jettySize=auto;html=1;" edge="1" parent="1" source="rh9D7iEmWUqZi5Uznie9-18" target="rh9D7iEmWUqZi5Uznie9-17">
          <mxGeometry relative="1" as="geometry">
            <mxPoint x="170.0000000000001" y="859.4800000000002" as="targetPoint" />
          </mxGeometry>
        </mxCell>
        <mxCell id="rh9D7iEmWUqZi5Uznie9-18" value="lambda_handler" style="outlineConnect=0;dashed=0;verticalLabelPosition=bottom;verticalAlign=top;align=center;html=1;shape=mxgraph.aws3.lambda_function;fillColor=#F58534;gradientColor=none;" parent="1" vertex="1">
          <mxGeometry x="230" y="834.4800000000001" width="50" height="50" as="geometry" />
        </mxCell>
        <mxCell id="rh9D7iEmWUqZi5Uznie9-19" style="edgeStyle=orthogonalEdgeStyle;rounded=0;orthogonalLoop=1;jettySize=auto;html=1;entryX=0;entryY=0.5;entryDx=0;entryDy=0;entryPerimeter=0;" parent="1" source="rh9D7iEmWUqZi5Uznie9-17" target="rh9D7iEmWUqZi5Uznie9-18" edge="1">
          <mxGeometry relative="1" as="geometry">
            <Array as="points">
              <mxPoint x="170" y="860" />
              <mxPoint x="170" y="860" />
            </Array>
          </mxGeometry>
        </mxCell>
        <mxCell id="rh9D7iEmWUqZi5Uznie9-29" style="edgeStyle=orthogonalEdgeStyle;rounded=0;orthogonalLoop=1;jettySize=auto;html=1;" parent="1" source="rh9D7iEmWUqZi5Uznie9-27" target="rh9D7iEmWUqZi5Uznie9-3" edge="1">
          <mxGeometry relative="1" as="geometry" />
        </mxCell>
        <mxCell id="rh9D7iEmWUqZi5Uznie9-30" value="" style="edgeStyle=orthogonalEdgeStyle;rounded=0;orthogonalLoop=1;jettySize=auto;html=1;" parent="1" source="rh9D7iEmWUqZi5Uznie9-27" target="rh9D7iEmWUqZi5Uznie9-2" edge="1">
          <mxGeometry relative="1" as="geometry" />
        </mxCell>
        <mxCell id="rh9D7iEmWUqZi5Uznie9-27" value="XGBoost Model" style="sketch=0;outlineConnect=0;fontColor=#232F3E;gradientColor=none;fillColor=#01A88D;strokeColor=none;dashed=0;verticalLabelPosition=bottom;verticalAlign=top;align=center;html=1;fontSize=12;fontStyle=0;aspect=fixed;pointerEvents=1;shape=mxgraph.aws4.sagemaker_model;" parent="1" vertex="1">
          <mxGeometry x="440" y="834.48" width="50.68" height="50.68" as="geometry" />
        </mxCell>
        <mxCell id="rh9D7iEmWUqZi5Uznie9-31" style="edgeStyle=orthogonalEdgeStyle;rounded=0;orthogonalLoop=1;jettySize=auto;html=1;entryX=1;entryY=0.5;entryDx=0;entryDy=0;entryPerimeter=0;" parent="1" source="rh9D7iEmWUqZi5Uznie9-27" target="rh9D7iEmWUqZi5Uznie9-2" edge="1">
          <mxGeometry relative="1" as="geometry" />
        </mxCell>
        <mxCell id="rh9D7iEmWUqZi5Uznie9-33" value="" style="sketch=0;outlineConnect=0;fontColor=#232F3E;gradientColor=none;fillColor=#232F3D;strokeColor=none;dashed=0;verticalLabelPosition=bottom;verticalAlign=top;align=center;html=1;fontSize=12;fontStyle=0;aspect=fixed;pointerEvents=1;shape=mxgraph.aws4.user;" parent="1" vertex="1">
          <mxGeometry x="-190" y="831.72" width="55.52" height="55.52" as="geometry" />
        </mxCell>
        <mxCell id="rh9D7iEmWUqZi5Uznie9-39" style="edgeStyle=orthogonalEdgeStyle;rounded=0;orthogonalLoop=1;jettySize=auto;html=1;" parent="1" source="rh9D7iEmWUqZi5Uznie9-38" target="rh9D7iEmWUqZi5Uznie9-17" edge="1">
          <mxGeometry relative="1" as="geometry" />
        </mxCell>
        <mxCell id="rh9D7iEmWUqZi5Uznie9-38" value="" style="sketch=0;pointerEvents=1;shadow=0;dashed=0;html=1;strokeColor=none;labelPosition=center;verticalLabelPosition=bottom;verticalAlign=top;align=center;fillColor=#505050;shape=mxgraph.mscae.intune.device_group" parent="1" vertex="1">
          <mxGeometry x="-50" y="834.48" width="50" height="50" as="geometry" />
        </mxCell>
        <mxCell id="rh9D7iEmWUqZi5Uznie9-40" style="edgeStyle=orthogonalEdgeStyle;rounded=0;orthogonalLoop=1;jettySize=auto;html=1;entryX=0;entryY=0.5;entryDx=0;entryDy=0;entryPerimeter=0;" parent="1" source="rh9D7iEmWUqZi5Uznie9-33" target="rh9D7iEmWUqZi5Uznie9-38" edge="1">
          <mxGeometry relative="1" as="geometry" />
        </mxCell>
        <mxCell id="S-vX27h5e5ZqEniTOA8P-1" style="edgeStyle=orthogonalEdgeStyle;rounded=0;orthogonalLoop=1;jettySize=auto;html=1;entryX=1;entryY=0.5;entryDx=0;entryDy=0;entryPerimeter=0;" edge="1" parent="1" source="rh9D7iEmWUqZi5Uznie9-2" target="rh9D7iEmWUqZi5Uznie9-18">
          <mxGeometry relative="1" as="geometry" />
        </mxCell>
        <mxCell id="S-vX27h5e5ZqEniTOA8P-6" style="edgeStyle=orthogonalEdgeStyle;rounded=0;orthogonalLoop=1;jettySize=auto;html=1;entryX=0.5;entryY=0;entryDx=0;entryDy=0;entryPerimeter=0;" edge="1" parent="1" source="rh9D7iEmWUqZi5Uznie9-3" target="rh9D7iEmWUqZi5Uznie9-2">
          <mxGeometry relative="1" as="geometry">
            <Array as="points">
              <mxPoint x="584" y="815" />
              <mxPoint x="363" y="815" />
            </Array>
          </mxGeometry>
        </mxCell>
      </root>
    </mxGraphModel>
  </diagram>
</mxfile>
